<?xml version="1.0" encoding="UTF-8" standalone="no"?><!DOCTYPE svg PUBLIC "-//W3C//DTD SVG 1.1//EN" "http://www.w3.org/Graphics/SVG/1.1/DTD/svg11.dtd"><svg width="100%" height="100%" viewBox="0 0 200 200" version="1.1" xmlns="http://www.w3.org/2000/svg" xmlns:xlink="http://www.w3.org/1999/xlink" xml:space="preserve" xmlns:serif="http://www.serif.com/" style="fill-rule:evenodd;clip-rule:evenodd;stroke-linejoin:round;stroke-miterlimit:2;"><path id="Page-3" serif:id="Page 3" d="M200,21.176l0,157.647c0,11.688 -9.489,21.176 -21.176,21.176l-157.647,0c-11.688,0 -21.176,-9.489 -21.176,-21.176l0,-157.647c0,-11.688 9.489,-21.176 21.176,-21.176l157.647,0c11.688,0 21.176,9.489 21.176,21.176Z" style="fill:#fff;"/><clipPath id="_clip1"><path d="M200,21.176l0,157.647c0,11.688 -9.489,21.176 -21.176,21.176l-157.647,0c-11.688,0 -21.176,-9.489 -21.176,-21.176l0,-157.647c0,-11.688 9.489,-21.176 21.176,-21.176l157.647,0c11.688,0 21.176,9.489 21.176,21.176Z"/></clipPath><g clip-path="url(#_clip1)"><g id="Layer-1" serif:id="Layer 1"><g><path d="M175.47,99.998c0,4.677 -0.601,9.215 -1.728,13.544c-1.254,4.805 -3.16,9.35 -5.616,13.54c-1.832,3.125 -3.972,6.053 -6.38,8.743c-1.517,1.698 -3.142,3.301 -4.866,4.798c-2.726,2.375 -5.693,4.487 -8.861,6.294c-4.247,2.426 -8.854,4.307 -13.724,5.541c-4.31,1.098 -8.824,1.687 -13.475,1.709l-13.939,0l0,-1.698c-0.011,-0.004 -0.022,-0.007 -0.033,-0.011l0,1.709l-27.418,0l0,-1.709c-0.011,0.004 -0.022,0.007 -0.033,0.011l0,1.698l-27.414,0l0,-13.544l68.622,0c4.8,-0.004 9.406,-0.816 13.69,-2.309c5.115,-1.786 9.766,-4.538 13.724,-8.036c1.142,-1.006 2.225,-2.071 3.242,-3.198c3.546,-3.905 6.335,-8.494 8.141,-13.537c1.517,-4.238 2.344,-8.794 2.344,-13.544c0,-4.746 -0.827,-9.306 -2.344,-13.544c-1.806,-5.043 -4.599,-9.632 -8.141,-13.54c-1.02,-1.123 -2.103,-2.188 -3.242,-3.195c-3.958,-3.499 -8.609,-6.25 -13.724,-8.033c-4.284,-1.493 -8.891,-2.309 -13.69,-2.313l-13.724,0l0,-13.537l13.216,0c0.033,-0.004 0.063,-0.004 0.093,0c0.007,-0.004 0.015,-0.004 0.022,0l0.393,0c0.074,-0.004 0.152,-0.004 0.226,-0.004l0.093,0c4.614,0.029 9.095,0.618 13.371,1.705c4.87,1.237 9.477,3.118 13.724,5.541c3.168,1.808 6.135,3.919 8.861,6.294c1.725,1.497 3.349,3.103 4.866,4.798c2.407,2.693 4.547,5.621 6.38,8.743c2.455,4.194 4.362,8.739 5.616,13.544c1.128,4.326 1.728,8.863 1.728,13.54" style="fill:#111;fill-rule:nonzero;"/><g><path d="M175.47,99.998c0,4.677 -0.601,9.215 -1.728,13.544c-1.254,4.805 -3.16,9.35 -5.616,13.54c-1.832,3.125 -3.972,6.053 -6.38,8.743c-1.517,1.698 -3.142,3.301 -4.866,4.798c-2.726,2.375 -5.693,4.487 -8.861,6.294c-4.247,2.426 -8.854,4.307 -13.724,5.541c-4.31,1.098 -8.824,1.687 -13.475,1.709l-13.939,0l0,-1.698c-0.011,-0.004 -0.022,-0.007 -0.033,-0.011l0,1.709l-27.418,0l0,-1.709c-0.011,0.004 -0.022,0.007 -0.033,0.011l0,1.698l-27.414,0l0,-13.544l68.622,0c4.8,-0.004 9.406,-0.816 13.69,-2.309c5.115,-1.786 9.766,-4.538 13.724,-8.036c1.142,-1.006 2.225,-2.071 3.242,-3.198c3.546,-3.905 6.335,-8.494 8.141,-13.537c1.517,-4.238 2.344,-8.794 2.344,-13.544c0,-4.746 -0.827,-9.306 -2.344,-13.544c-1.806,-5.043 -4.599,-9.632 -8.141,-13.54c-1.02,-1.123 -2.103,-2.188 -3.242,-3.195c-3.958,-3.499 -8.609,-6.25 -13.724,-8.033c-4.284,-1.493 -8.891,-2.309 -13.69,-2.313l-13.724,0l0,-13.537l13.216,0c0.033,-0.004 0.063,-0.004 0.093,0c0.007,-0.004 0.015,-0.004 0.022,0l0.393,0c0.074,-0.004 0.152,-0.004 0.226,-0.004l0.093,0c4.614,0.029 9.095,0.618 13.371,1.705c4.87,1.237 9.477,3.118 13.724,5.541c3.168,1.808 6.135,3.919 8.861,6.294c1.725,1.497 3.349,3.103 4.866,4.798c2.407,2.693 4.547,5.621 6.38,8.743c2.455,4.194 4.362,8.739 5.616,13.544c1.128,4.326 1.728,8.863 1.728,13.54Z" style="fill:none;fill-rule:nonzero;"/><path d="M93.115,45.837l0,54.161l-13.69,0l0,-40.625l-0.033,0c-4.8,0.004 -9.406,0.816 -13.69,2.313c-5.115,1.782 -9.766,4.534 -13.727,8.033c-1.135,1.003 -2.218,2.071 -3.238,3.195c-3.542,3.905 -6.331,8.49 -8.138,13.529c-1.521,4.238 -2.348,8.801 -2.348,13.555l0,54.168l-13.709,0c0,-4.516 -0.004,-9.028 -0.004,-13.544l0,-13.551c-0.004,-4.512 -0.004,-9.021 -0.004,-13.529l0,-12.721c0,-0.274 0,-0.549 -0.004,-0.823l0,-0.812c0.067,-4.395 0.664,-8.662 1.728,-12.743c1.254,-4.801 3.156,-9.339 5.612,-13.529c1.832,-3.125 3.972,-6.053 6.38,-8.743c1.517,-1.698 3.145,-3.301 4.863,-4.798c2.73,-2.375 5.697,-4.487 8.861,-6.294c4.251,-2.423 8.857,-4.304 13.727,-5.541c4.277,-1.087 8.753,-1.676 13.368,-1.702l14.046,0Z" style="fill:#111;fill-rule:nonzero;"/></g><path d="M148.021,99.998l0,0.07c0,4.907 -1.324,9.504 -3.639,13.474c-2.415,4.132 -5.901,7.575 -10.085,9.961c-3.661,2.086 -7.852,3.359 -12.325,3.575l-0.015,0c-0.449,-0.004 -0.901,-0.004 -1.35,-0.004l-1.361,0c-0.004,0.004 -0.011,0 -0.015,0l-39.836,0c-2.129,0 -4.258,0 -6.383,-0.004l-7.329,0l0,0.004l-1.302,0c-0.004,0.004 -0.007,0 -0.015,0l-12.385,0l0,-13.533l12.9,0c0.263,0.018 0.53,0.026 0.797,0.026l0.067,0c0.293,0 0.582,-0.007 0.868,-0.026l53.129,0c0.274,0.018 0.549,0.026 0.827,0.026l0.041,0c0.293,0 0.579,-0.007 0.868,-0.026c7.155,-0.439 12.819,-6.305 12.819,-13.474l0,-0.07l-0.004,0c-0.033,-7.425 -6.146,-13.434 -13.683,-13.434l-0.004,0l0,-0.113l-1.732,0c-3.998,0 -7.993,0 -11.995,-0.004l0,-13.533l13.69,0l0,0.11l0.041,0c4.985,0 9.658,1.314 13.687,3.608c4.139,2.357 7.593,5.749 10,9.819c2.355,3.982 3.713,8.611 3.724,13.548Z" style="fill:#111;fill-rule:nonzero;"/></g></g></g></svg>