<?xml version="1.0" encoding="UTF-8"?>
<svg id="Layer_1" data-name="Layer 1" xmlns="http://www.w3.org/2000/svg" viewBox="0 0 180 180">
  <defs>
    <style>
      .cls-1 {
        fill: #111;
      }
    </style>
  </defs>
  <path class="cls-1" d="M165.1,90c0,4.72-.6,9.29-1.72,13.66-1.25,4.85-3.14,9.43-5.59,13.66-1.82,3.15-3.95,6.1-6.35,8.82-1.51,1.71-3.13,3.33-4.84,4.84-2.71,2.4-5.67,4.53-8.82,6.35-4.23,2.45-8.81,4.34-13.66,5.59-4.29,1.1-8.78,1.7-13.41,1.72h-13.87v-1.71s-.02,0-.03,0v1.72h-27.28v-1.72h-.04v1.72h-27.28v-13.66h68.28c4.78,0,9.36-.82,13.62-2.33,5.09-1.8,9.72-4.57,13.66-8.1,1.13-1.01,2.21-2.09,3.22-3.23,3.53-3.94,6.3-8.57,8.1-13.65,1.51-4.27,2.33-8.87,2.33-13.66s-.82-9.39-2.33-13.66c-1.8-5.09-4.57-9.72-8.1-13.66-1.01-1.13-2.09-2.21-3.22-3.22-3.94-3.53-8.57-6.3-13.66-8.1-4.26-1.51-8.85-2.33-13.62-2.33h-13.66v-13.65h13.15s.06,0,.09,0c0,0,.01,0,.02,0h.39c.07,0,.15,0,.22,0,.03,0,.06,0,.09,0,4.59.03,9.05.62,13.31,1.72,4.84,1.25,9.43,3.14,13.66,5.59,3.15,1.82,6.1,3.95,8.82,6.35,1.71,1.51,3.33,3.13,4.84,4.84,2.4,2.71,4.53,5.67,6.35,8.82,2.45,4.23,4.34,8.81,5.59,13.66,1.12,4.37,1.72,8.94,1.72,13.66Z"/>
  <path class="cls-1" d="M137.78,90v.07c0,4.95-1.32,9.59-3.62,13.59-2.4,4.17-5.87,7.64-10.04,10.05-3.64,2.1-7.81,3.39-12.27,3.6h-.01c-.45,0-.9,0-1.35,0h-1.35s0,0-.01,0h-5.94c-2.12,0-4.24,0-6.35,0-.01,0-.02,0-.03,0-3.46,0-6.93,0-10.39,0h-3.27c-1.08,0-2.15,0-3.23,0-3.46,0-6.93,0-10.39,0h-.04c-2.12,0-4.24,0-6.35,0h-7.29s-1.29,0-1.29,0c0,0,0,0-.01,0h-12.32v-13.65h12.83c.26.02.53.03.8.03,0,0,.02,0,.03,0h.04c.29,0,.58,0,.86-.03h52.87c.27.02.55.03.82.03h.04c.29,0,.58,0,.86-.03,7.12-.44,12.76-6.36,12.76-13.59v-.07h0c-.04-7.49-6.12-13.55-13.62-13.55h0v-.12h-1.72c-3.98,0-7.96,0-11.93,0v-13.65h13.62v.11h.04c4.96,0,9.61,1.32,13.62,3.64,4.12,2.38,7.56,5.8,9.95,9.91,2.34,4.01,3.69,8.68,3.7,13.66Z"/>
  <path class="cls-1" d="M83.15,35.38v54.62h-13.62v-40.97h-.03c-4.78,0-9.36.82-13.62,2.33-5.09,1.8-9.72,4.57-13.66,8.1-1.13,1.01-2.21,2.09-3.22,3.22-3.52,3.94-6.3,8.56-8.1,13.64-1.51,4.28-2.34,8.88-2.34,13.67v54.63h-13.64c0-4.55,0-9.1,0-13.66,0-4.56,0-9.11,0-13.67,0-4.55,0-9.1,0-13.65,0-4.28,0-8.55,0-12.83,0-.28,0-.55,0-.83v-.82c.07-4.43.66-8.74,1.72-12.85,1.25-4.84,3.14-9.42,5.58-13.64,1.82-3.15,3.95-6.1,6.35-8.82,1.51-1.71,3.13-3.33,4.84-4.84,2.71-2.4,5.67-4.53,8.82-6.35,4.23-2.45,8.81-4.34,13.66-5.59,4.25-1.1,8.71-1.69,13.3-1.72h.32s13.66,0,13.66,0Z"/>
</svg>