<?xml version="1.0" encoding="UTF-8"?>
<svg id="Layer_1" data-name="Layer 1" xmlns="http://www.w3.org/2000/svg" viewBox="0 0 48 48">
  <defs>
    <style>
      .cls-1 {
        fill: #131344;
      }

      .cls-2 {
        fill: #fff;
      }
    </style>
  </defs>
  <rect class="cls-1" width="48" height="48" rx="5.51" ry="5.51"/>
  <g>
    <path class="cls-2" d="M34.63,24v.02c0,1.1-.29,2.13-.81,3.02-.53.93-1.31,1.7-2.23,2.24-.81.47-1.74.75-2.73.8h0c-.1,0-.2,0-.3,0h-.3s0,0,0,0h-1.32c-.47,0-.94,0-1.41,0,0,0,0,0,0,0-.77,0-1.54,0-2.31,0h-.73c-.24,0-.48,0-.72,0-.77,0-1.54,0-2.31,0h0c-.47,0-.94,0-1.41,0h-1.62s-.29,0-.29,0c0,0,0,0,0,0h-2.74v-3.04h2.86c.06,0,.12,0,.18,0,0,0,0,0,0,0h0c.06,0,.13,0,.19,0h11.76c.06,0,.12,0,.18,0h0c.06,0,.13,0,.19,0,1.58-.1,2.84-1.41,2.84-3.02v-.02h0c0-1.67-1.36-3.01-3.03-3.01h0v-.03h-.38c-.88,0-1.77,0-2.66,0v-3.04h3.03v.02h0c1.1,0,2.14.29,3.03.81.92.53,1.68,1.29,2.21,2.2.52.89.82,1.93.82,3.04Z"/>
    <path class="cls-2" d="M40.71,24c0,1.05-.13,2.07-.38,3.04-.28,1.08-.7,2.1-1.24,3.04-.41.7-.88,1.36-1.41,1.96-.34.38-.7.74-1.08,1.08-.6.53-1.26,1.01-1.96,1.41-.94.54-1.96.97-3.04,1.24-.95.25-1.95.38-2.98.38h-3.09v-.38s0,0,0,0v.38h-6.07v-.38h0v.38h-6.07v-3.04h15.19c1.06,0,2.08-.18,3.03-.52,1.13-.4,2.16-1.02,3.04-1.8.25-.23.49-.47.72-.72.78-.88,1.4-1.91,1.8-3.04.34-.95.52-1.97.52-3.04s-.18-2.09-.52-3.04c-.4-1.13-1.02-2.16-1.8-3.04-.23-.25-.47-.49-.72-.72-.88-.78-1.91-1.4-3.04-1.8-.95-.33-1.97-.52-3.03-.52h-3.04v-3.04h2.93s.01,0,.02,0c0,0,0,0,0,0h.09s.03,0,.05,0c0,0,.01,0,.02,0,1.02,0,2.01.14,2.96.38,1.08.28,2.1.7,3.04,1.24.7.41,1.36.88,1.96,1.41.38.34.74.7,1.08,1.08.53.6,1.01,1.26,1.41,1.96.54.94.97,1.96,1.24,3.04.25.97.38,1.99.38,3.04Z"/>
    <path class="cls-2" d="M22.48,11.85v12.15h-3.03v-9.11h0c-1.06,0-2.08.18-3.03.52-1.13.4-2.16,1.02-3.04,1.8-.25.23-.49.47-.72.72-.78.88-1.4,1.9-1.8,3.04-.34.95-.52,1.97-.52,3.04v12.15h-3.04c0-1.01,0-2.03,0-3.04,0-1.01,0-2.03,0-3.04,0-1.01,0-2.02,0-3.04,0-.95,0-1.9,0-2.85,0-.06,0-.12,0-.18v-.18c.01-.99.15-1.94.38-2.86.28-1.08.7-2.1,1.24-3.03.41-.7.88-1.36,1.41-1.96.34-.38.7-.74,1.08-1.08.6-.53,1.26-1.01,1.96-1.41.94-.54,1.96-.97,3.04-1.24.95-.24,1.94-.38,2.96-.38h.07s3.04,0,3.04,0Z"/>
  </g>
</svg>