<?xml version="1.0" encoding="UTF-8"?>
<svg id="Layer_1" data-name="Layer 1" xmlns="http://www.w3.org/2000/svg" viewBox="0 0 48 48">
  <defs>
    <style>
      .cls-1 {
        fill: #fff;
        stroke-width: .25px;
      }

      .cls-1, .cls-2 {
        stroke: #231f20;
        stroke-miterlimit: 10;
      }

      .cls-2 {
        fill: #265663;
        stroke-width: .15px;
      }
    </style>
  </defs>
  <rect class="cls-2" width="48" height="48" rx="5.51" ry="5.51"/>
  <g>
    <path class="cls-1" d="M36.24,24v.02c0,1.27-.34,2.46-.93,3.48-.61,1.07-1.5,1.96-2.57,2.57-.93.54-2,.87-3.14.92h0c-.11,0-.23,0-.34,0h-.35s0,0,0,0h-1.52c-.54,0-1.09,0-1.63,0,0,0,0,0,0,0-.89,0-1.78,0-2.66,0h-.84c-.28,0-.55,0-.83,0-.89,0-1.77,0-2.66,0h0c-.54,0-1.09,0-1.63,0h-1.87s-.33,0-.33,0c0,0,0,0,0,0h-3.16v-3.5h3.29c.07,0,.14,0,.2,0,0,0,0,0,0,0h0c.07,0,.15,0,.22,0h13.55c.07,0,.14,0,.21,0h0c.07,0,.15,0,.22,0,1.82-.11,3.27-1.63,3.27-3.48v-.02h0c0-1.92-1.57-3.47-3.49-3.47h0v-.03h-.44c-1.02,0-2.04,0-3.06,0v-3.5h3.49v.03h0c1.27,0,2.46.34,3.49.93,1.06.61,1.94,1.49,2.55,2.54.6,1.03.95,2.22.95,3.5Z"/>
    <path class="cls-1" d="M43.24,24c0,1.21-.15,2.38-.44,3.5-.32,1.24-.81,2.42-1.43,3.5-.47.81-1.01,1.56-1.63,2.26-.39.44-.8.85-1.24,1.24-.7.61-1.45,1.16-2.26,1.63-1.08.63-2.26,1.11-3.5,1.43-1.1.28-2.25.44-3.44.44H11.76v-3.5h17.49c1.22,0,2.4-.21,3.49-.6,1.3-.46,2.49-1.17,3.5-2.08.29-.26.57-.54.83-.83.9-1.01,1.61-2.19,2.08-3.5.39-1.09.6-2.27.6-3.5s-.21-2.4-.6-3.5c-.46-1.3-1.17-2.49-2.08-3.5-.26-.29-.54-.57-.83-.83-1.01-.9-2.2-1.61-3.5-2.08-1.09-.39-2.27-.6-3.49-.6h-3.5v-3.5h3.37s.02,0,.02,0c0,0,0,0,0,0h.1s.04,0,.06,0c0,0,.02,0,.02,0,1.18,0,2.32.16,3.41.44,1.24.32,2.42.81,3.5,1.43.81.47,1.56,1.01,2.26,1.63.44.39.85.8,1.24,1.24.61.7,1.16,1.45,1.63,2.26.63,1.08,1.11,2.26,1.43,3.5.29,1.12.44,2.29.44,3.5Z"/>
    <path class="cls-1" d="M22.24,10.01v13.99h-3.49v-10.5h0c-1.22,0-2.4.21-3.49.6-1.3.46-2.49,1.17-3.5,2.08-.29.26-.57.54-.83.83-.9,1.01-1.61,2.19-2.07,3.5-.39,1.1-.6,2.27-.6,3.5v14h-3.5c0-1.17,0-2.33,0-3.5,0-1.17,0-2.33,0-3.5,0-1.17,0-2.33,0-3.5,0-1.1,0-2.19,0-3.29,0-.07,0-.14,0-.21v-.21c.02-1.14.17-2.24.44-3.29.32-1.24.81-2.41,1.43-3.5.47-.81,1.01-1.56,1.63-2.26.39-.44.8-.85,1.24-1.24.7-.61,1.45-1.16,2.26-1.63,1.08-.63,2.26-1.11,3.5-1.43,1.09-.28,2.23-.43,3.41-.44h.08s3.5,0,3.5,0Z"/>
  </g>
</svg>