<?xml version="1.0" encoding="UTF-8"?>
<svg id="Layer_1" data-name="Layer 1" xmlns="http://www.w3.org/2000/svg" viewBox="0 0 48 48">
  <defs>
    <style>
      .cls-1 {
        fill: #111;
      }

      .cls-2 {
        fill: #fff;
      }
    </style>
  </defs>
  <rect class="cls-1" width="48" height="48"/>
  <g>
    <path class="cls-2" d="M34.89,24v.02c0,1.13-.3,2.19-.83,3.1-.55.95-1.34,1.74-2.29,2.29-.83.48-1.78.77-2.8.82h0c-.1,0-.2,0-.31,0h-.31s0,0,0,0h-1.35c-.48,0-.97,0-1.45,0,0,0,0,0,0,0-.79,0-1.58,0-2.37,0h-.74c-.25,0-.49,0-.74,0-.79,0-1.58,0-2.37,0h0c-.48,0-.97,0-1.45,0h-1.66s-.3,0-.3,0c0,0,0,0,0,0h-2.81v-3.11h2.93c.06,0,.12,0,.18,0,0,0,0,0,0,0h0c.07,0,.13,0,.2,0h12.05c.06,0,.12,0,.19,0h0c.07,0,.13,0,.2,0,1.62-.1,2.91-1.45,2.91-3.1v-.02h0c0-1.71-1.39-3.09-3.1-3.09h0v-.03h-.39c-.91,0-1.81,0-2.72,0v-3.11h3.11v.02h0c1.13,0,2.19.3,3.1.83.94.54,1.72,1.32,2.27,2.26.53.92.84,1.98.84,3.11Z"/>
    <path class="cls-2" d="M41.12,24c0,1.08-.14,2.12-.39,3.11-.28,1.1-.72,2.15-1.27,3.11-.42.72-.9,1.39-1.45,2.01-.34.39-.71.76-1.1,1.1-.62.55-1.29,1.03-2.01,1.45-.96.56-2.01.99-3.11,1.27-.98.25-2,.39-3.06.39h-3.16v-.39s0,0,0,0v.39h-6.22v-.39h0v.39h-6.22v-3.11h15.57c1.09,0,2.13-.19,3.11-.53,1.16-.41,2.22-1.04,3.11-1.85.26-.23.5-.48.74-.74.8-.9,1.44-1.95,1.85-3.11.34-.97.53-2.02.53-3.11s-.19-2.14-.53-3.11c-.41-1.16-1.04-2.21-1.85-3.11-.23-.26-.48-.5-.73-.73-.9-.8-1.95-1.44-3.11-1.85-.97-.34-2.02-.53-3.11-.53h-3.11v-3.11h3s.01,0,.02,0c0,0,0,0,0,0h.09s.03,0,.05,0c0,0,.01,0,.02,0,1.05,0,2.06.14,3.03.39,1.1.28,2.15.72,3.11,1.27.72.42,1.39.9,2.01,1.45.39.34.76.71,1.1,1.1.55.62,1.03,1.29,1.45,2.01.56.96.99,2.01,1.27,3.11.26,1,.39,2.04.39,3.11Z"/>
    <path class="cls-2" d="M22.44,11.55v12.45h-3.11v-9.34h0c-1.09,0-2.13.19-3.11.53-1.16.41-2.22,1.04-3.11,1.85-.26.23-.5.48-.73.73-.8.9-1.44,1.95-1.85,3.11-.34.97-.53,2.02-.53,3.12v12.46h-3.11c0-1.04,0-2.08,0-3.11,0-1.04,0-2.08,0-3.12,0-1.04,0-2.07,0-3.11,0-.98,0-1.95,0-2.92,0-.06,0-.13,0-.19v-.19c.02-1.01.15-1.99.39-2.93.28-1.1.72-2.15,1.27-3.11.42-.72.9-1.39,1.45-2.01.34-.39.71-.76,1.1-1.1.62-.55,1.29-1.03,2.01-1.45.96-.56,2.01-.99,3.11-1.27.97-.25,1.99-.39,3.03-.39h.07s3.11,0,3.11,0Z"/>
  </g>
</svg>