<?xml version="1.0" encoding="UTF-8"?>
<svg id="Layer_1" data-name="Layer 1" xmlns="http://www.w3.org/2000/svg" viewBox="0 0 48 48">
  <defs>
    <style>
      .cls-1 {
        fill: #111;
      }
    </style>
  </defs>
  <path class="cls-1" d="M45.44,24c0,1.35-.17,2.65-.49,3.9-.36,1.38-.9,2.69-1.59,3.9-.52.9-1.13,1.74-1.81,2.52-.43.49-.89.95-1.38,1.38-.77.68-1.62,1.29-2.52,1.81-1.21.7-2.52,1.24-3.9,1.6-1.22.32-2.51.49-3.83.49h-3.96v-.49s0,0,0,0v.49h-7.79v-.49h-.01v.49h-7.79v-3.9h19.49c1.36,0,2.67-.24,3.89-.67,1.45-.51,2.77-1.31,3.9-2.31.32-.29.63-.6.92-.92,1.01-1.12,1.8-2.45,2.31-3.9.43-1.22.67-2.53.67-3.9s-.23-2.68-.67-3.9c-.51-1.45-1.31-2.77-2.31-3.9-.29-.32-.6-.63-.92-.92-1.12-1.01-2.45-1.8-3.9-2.31-1.22-.43-2.53-.66-3.89-.67h-3.9v-3.9h3.75s.02,0,.03,0c0,0,0,0,0,0h.11s.04,0,.06,0c0,0,.02,0,.03,0,1.31,0,2.58.18,3.8.49,1.38.36,2.69.9,3.9,1.6.9.52,1.74,1.13,2.52,1.81.49.43.95.89,1.38,1.38.68.77,1.29,1.62,1.81,2.52.7,1.21,1.24,2.52,1.6,3.9.32,1.25.49,2.55.49,3.9Z"/>
  <path class="cls-1" d="M37.64,24v.02c0,1.41-.38,2.74-1.03,3.88-.69,1.19-1.68,2.18-2.87,2.87-1.04.6-2.23.97-3.5,1.03h0c-.13,0-.26,0-.38,0h-.39s0,0,0,0h-1.69c-.6,0-1.21,0-1.81,0,0,0,0,0,0,0-.99,0-1.98,0-2.97,0h-.93c-.31,0-.61,0-.92,0-.99,0-1.98,0-2.97,0h-.01c-.6,0-1.21,0-1.81,0h-2.08s-.37,0-.37,0c0,0,0,0,0,0h-3.52v-3.9h3.66c.08,0,.15,0,.23,0,0,0,0,0,0,0h.01c.08,0,.16,0,.25,0h15.09c.08,0,.16,0,.23,0h.01c.08,0,.16,0,.25,0,2.03-.13,3.64-1.82,3.64-3.88v-.02h0c-.01-2.14-1.75-3.87-3.89-3.87h0v-.03h-.49c-1.14,0-2.27,0-3.41,0v-3.9h3.89v.03h.01c1.42,0,2.74.38,3.89,1.04,1.18.68,2.16,1.66,2.84,2.83.67,1.15,1.05,2.48,1.06,3.9Z"/>
  <path class="cls-1" d="M22.04,8.41v15.59h-3.89v-11.7h0c-1.36,0-2.67.24-3.89.67-1.45.51-2.77,1.31-3.9,2.31-.32.29-.63.6-.92.92-1.01,1.12-1.8,2.44-2.31,3.9-.43,1.22-.67,2.53-.67,3.9v15.6h-3.9c0-1.3,0-2.6,0-3.9,0-1.3,0-2.6,0-3.9,0-1.3,0-2.6,0-3.9,0-1.22,0-2.44,0-3.66,0-.08,0-.16,0-.24v-.23c.02-1.27.19-2.49.49-3.67.36-1.38.9-2.69,1.59-3.89.52-.9,1.13-1.74,1.81-2.52.43-.49.89-.95,1.38-1.38.77-.68,1.62-1.29,2.52-1.81,1.21-.7,2.52-1.24,3.9-1.6,1.21-.31,2.49-.48,3.8-.49h.09s3.9,0,3.9,0Z"/>
</svg>