<?xml version="1.0" encoding="UTF-8" standalone="no"?><!DOCTYPE svg PUBLIC "-//W3C//DTD SVG 1.1//EN" "http://www.w3.org/Graphics/SVG/1.1/DTD/svg11.dtd"><svg width="100%" height="100%" viewBox="0 0 200 200" version="1.1" xmlns="http://www.w3.org/2000/svg" xmlns:xlink="http://www.w3.org/1999/xlink" xml:space="preserve" xmlns:serif="http://www.serif.com/" style="fill-rule:evenodd;clip-rule:evenodd;stroke-linejoin:round;stroke-miterlimit:2;"><rect id="Page-3" serif:id="Page 3" x="0" y="0" width="200" height="200" style="fill:#fff;"/><g id="Layer-1" serif:id="Layer 1"><path d="M184.78,99.999c0,5.325 -0.675,10.492 -1.942,15.421c-1.408,5.471 -3.55,10.646 -6.308,15.417c-2.058,3.558 -4.463,6.892 -7.167,9.954c-1.704,1.933 -3.529,3.758 -5.467,5.463c-3.062,2.704 -6.396,5.108 -9.954,7.167c-4.771,2.762 -9.946,4.904 -15.417,6.308c-4.842,1.25 -9.913,1.921 -15.138,1.946l-15.658,0l0,-1.933c-0.013,-0.004 -0.025,-0.008 -0.038,-0.012l0,1.946l-30.8,0l0,-1.946c-0.012,0.004 -0.025,0.008 -0.037,0.012l0,1.933l-30.796,0l0,-15.421l77.088,0c5.392,-0.004 10.567,-0.929 15.379,-2.629c5.746,-2.033 10.971,-5.167 15.417,-9.15c1.283,-1.146 2.5,-2.358 3.642,-3.642c3.983,-4.446 7.117,-9.671 9.146,-15.413c1.704,-4.825 2.633,-10.012 2.633,-15.421c0,-5.404 -0.929,-10.596 -2.633,-15.421c-2.029,-5.742 -5.167,-10.967 -9.146,-15.417c-1.146,-1.279 -2.363,-2.492 -3.642,-3.637c-4.446,-3.983 -9.671,-7.117 -15.417,-9.146c-4.812,-1.7 -9.988,-2.629 -15.379,-2.633l-15.417,0l0,-15.413l14.846,0c0.038,-0.004 0.071,-0.004 0.104,0c0.008,-0.004 0.017,-0.004 0.025,0l0.442,0c0.083,-0.004 0.171,-0.004 0.254,-0.004l0.104,0c5.183,0.033 10.217,0.704 15.021,1.942c5.471,1.408 10.646,3.55 15.417,6.308c3.558,2.058 6.892,4.462 9.954,7.167c1.938,1.704 3.762,3.533 5.467,5.463c2.704,3.067 5.108,6.4 7.167,9.954c2.758,4.775 4.9,9.95 6.308,15.421c1.267,4.925 1.942,10.092 1.942,15.417" style="fill:#111;fill-rule:nonzero;"/><path d="M184.78,99.999c0,5.325 -0.675,10.492 -1.942,15.421c-1.408,5.471 -3.55,10.646 -6.308,15.417c-2.058,3.558 -4.463,6.892 -7.167,9.954c-1.704,1.933 -3.529,3.758 -5.467,5.463c-3.062,2.704 -6.396,5.108 -9.954,7.167c-4.771,2.762 -9.946,4.904 -15.417,6.308c-4.842,1.25 -9.913,1.921 -15.138,1.946l-15.658,0l0,-1.933c-0.013,-0.004 -0.025,-0.008 -0.038,-0.012l0,1.946l-30.8,0l0,-1.946c-0.012,0.004 -0.025,0.008 -0.037,0.012l0,1.933l-30.796,0l0,-15.421l77.088,0c5.392,-0.004 10.567,-0.929 15.379,-2.629c5.746,-2.033 10.971,-5.167 15.417,-9.15c1.283,-1.146 2.5,-2.358 3.642,-3.642c3.983,-4.446 7.117,-9.671 9.146,-15.413c1.704,-4.825 2.633,-10.012 2.633,-15.421c0,-5.404 -0.929,-10.596 -2.633,-15.421c-2.029,-5.742 -5.167,-10.967 -9.146,-15.417c-1.146,-1.279 -2.363,-2.492 -3.642,-3.637c-4.446,-3.983 -9.671,-7.117 -15.417,-9.146c-4.812,-1.7 -9.988,-2.629 -15.379,-2.633l-15.417,0l0,-15.413l14.846,0c0.038,-0.004 0.071,-0.004 0.104,0c0.008,-0.004 0.017,-0.004 0.025,0l0.442,0c0.083,-0.004 0.171,-0.004 0.254,-0.004l0.104,0c5.183,0.033 10.217,0.704 15.021,1.942c5.471,1.408 10.646,3.55 15.417,6.308c3.558,2.058 6.892,4.462 9.954,7.167c1.938,1.704 3.762,3.533 5.467,5.463c2.704,3.067 5.108,6.4 7.167,9.954c2.758,4.775 4.9,9.95 6.308,15.421c1.267,4.925 1.942,10.092 1.942,15.417Z" style="fill:none;fill-rule:nonzero;"/><path d="M153.944,99.999l0,0.079c0,5.587 -1.488,10.821 -4.088,15.342c-2.713,4.704 -6.629,8.625 -11.329,11.342c-4.113,2.375 -8.821,3.825 -13.846,4.071l-0.017,0c-0.504,-0.004 -1.013,-0.004 -1.517,-0.004l-1.529,0c-0.004,0.004 -0.013,0 -0.017,0l-44.75,0c-2.392,0 -4.783,0 -7.171,-0.004l-8.233,0l0,0.004l-1.462,0c-0.004,0.004 -0.008,0 -0.017,0l-13.913,0l0,-15.408l14.492,0c0.296,0.021 0.596,0.029 0.896,0.029l0.075,0c0.329,0 0.654,-0.008 0.975,-0.029l59.683,0c0.308,0.021 0.617,0.029 0.929,0.029l0.046,0c0.329,0 0.65,-0.008 0.975,-0.029c8.037,-0.5 14.4,-7.179 14.4,-15.342l0,-0.079l-0.004,0c-0.037,-8.454 -6.904,-15.296 -15.371,-15.296l-0.004,0l0,-0.129l-1.946,0c-4.492,0 -8.979,0 -13.475,-0.004l0,-15.408l15.379,0l0,0.125l0.046,0c5.6,0 10.85,1.496 15.375,4.108c4.65,2.683 8.529,6.546 11.233,11.179c2.646,4.533 4.171,9.804 4.183,15.425Z" style="fill:#111;fill-rule:nonzero;"/><path d="M92.264,38.332l0,61.667l-15.379,0l0,-46.254l-0.038,0c-5.392,0.004 -10.567,0.929 -15.379,2.633c-5.746,2.029 -10.971,5.163 -15.421,9.146c-1.275,1.142 -2.492,2.358 -3.638,3.638c-3.979,4.446 -7.112,9.667 -9.142,15.404c-1.708,4.825 -2.638,10.021 -2.638,15.433l0,61.675l-15.4,0c0,-5.142 -0.004,-10.279 -0.004,-15.421l0,-15.429c-0.004,-5.138 -0.004,-10.271 -0.004,-15.404l0,-14.483c0,-0.312 0,-0.625 -0.004,-0.938l0,-0.925c0.075,-5.004 0.746,-9.862 1.942,-14.508c1.408,-5.467 3.546,-10.633 6.304,-15.404c2.058,-3.558 4.463,-6.892 7.167,-9.954c1.704,-1.933 3.533,-3.758 5.463,-5.463c3.067,-2.704 6.4,-5.108 9.954,-7.167c4.775,-2.758 9.95,-4.9 15.421,-6.308c4.804,-1.237 9.833,-1.908 15.017,-1.938l15.779,0Z" style="fill:#111;fill-rule:nonzero;"/></g></svg>