<?xml version="1.0" encoding="UTF-8"?>
<svg id="Layer_1" data-name="Layer 1" xmlns="http://www.w3.org/2000/svg" viewBox="0 0 48 48">
  <defs>
    <style>
      .cls-1 {
        fill: #111;
      }

      .cls-2 {
        fill: #fff;
      }
    </style>
  </defs>
  <rect class="cls-2" width="48.15" height="47.83"/>
  <g>
    <path class="cls-1" d="M44.24,24c0,1.24-.16,2.43-.46,3.58-.34,1.27-.85,2.47-1.51,3.58-.49.83-1.07,1.6-1.71,2.31-.41.45-.84.87-1.3,1.27-.73.63-1.53,1.19-2.38,1.66-1.14.64-2.38,1.14-3.68,1.46-1.16.29-2.37.45-3.61.45h-3.74v-.45s0,0,0,0v.45h-7.35v-.45h0v.45h-7.35v-3.58h18.4c1.29,0,2.52-.22,3.67-.61,1.37-.47,2.62-1.2,3.68-2.12.31-.27.6-.55.87-.85.95-1.03,1.7-2.24,2.18-3.58.41-1.12.63-2.32.63-3.58s-.22-2.46-.63-3.58c-.48-1.33-1.23-2.54-2.18-3.58-.27-.3-.56-.58-.87-.84-1.06-.92-2.31-1.65-3.68-2.12-1.15-.39-2.38-.61-3.67-.61h-3.68v-3.58h3.54s.02,0,.03,0c0,0,0,0,0,0h.11s.04,0,.06,0c0,0,.02,0,.03,0,1.24,0,2.44.16,3.59.45,1.31.33,2.54.82,3.68,1.46.85.48,1.65,1.04,2.38,1.66.46.4.9.82,1.3,1.27.65.71,1.22,1.48,1.71,2.31.66,1.11,1.17,2.31,1.51,3.58.3,1.14.46,2.34.46,3.58Z"/>
    <path class="cls-1" d="M36.88,24v.02c0,1.3-.36,2.51-.98,3.56-.65,1.09-1.58,2-2.7,2.63-.98.55-2.11.89-3.31.94h0c-.12,0-.24,0-.36,0h-.37s0,0,0,0h-1.6c-.57,0-1.14,0-1.71,0,0,0,0,0,0,0-.93,0-1.87,0-2.8,0h-.88c-.29,0-.58,0-.87,0-.93,0-1.87,0-2.8,0h0c-.57,0-1.14,0-1.71,0h-1.97s-.35,0-.35,0c0,0,0,0,0,0h-3.32v-3.58h3.46c.07,0,.14,0,.21,0,0,0,0,0,0,0h.01c.08,0,.16,0,.23,0h14.25c.07,0,.15,0,.22,0h.01c.08,0,.16,0,.23,0,1.92-.12,3.44-1.67,3.44-3.56v-.02h0c0-1.96-1.65-3.55-3.67-3.55h0v-.03h-.46c-1.07,0-2.14,0-3.22,0v-3.57h3.67v.03h.01c1.34,0,2.59.35,3.67.95,1.11.62,2.04,1.52,2.68,2.59.63,1.05,1,2.27,1,3.58Z"/>
    <path class="cls-1" d="M22.15,9.69v14.31h-3.67v-10.73h0c-1.29,0-2.52.22-3.67.61-1.37.47-2.62,1.2-3.68,2.12-.31.27-.6.55-.87.84-.95,1.03-1.7,2.24-2.18,3.57-.41,1.12-.63,2.33-.63,3.58v14.31h-3.68c0-1.19,0-2.38,0-3.58,0-1.19,0-2.39,0-3.58,0-1.19,0-2.38,0-3.57,0-1.12,0-2.24,0-3.36,0-.07,0-.14,0-.22v-.21c.02-1.16.18-2.29.46-3.37.34-1.27.85-2.47,1.51-3.57.49-.83,1.07-1.6,1.71-2.31.41-.45.84-.87,1.3-1.27.73-.63,1.53-1.19,2.38-1.66,1.14-.64,2.38-1.14,3.68-1.46,1.15-.29,2.35-.44,3.58-.45h.09s3.68,0,3.68,0Z"/>
  </g>
</svg>