<?xml version="1.0" encoding="UTF-8"?>
<svg id="Layer_1" data-name="Layer 1" xmlns="http://www.w3.org/2000/svg" viewBox="0 0 48 48">
  <defs>
    <style>
      .cls-1 {
        fill: #111;
      }

      .cls-2 {
        fill: #fff;
      }
    </style>
  </defs>
  <rect class="cls-1" width="48" height="48"/>
  <g>
    <path class="cls-2" d="M36.28,24v.02c0,1.27-.34,2.46-.93,3.49-.62,1.07-1.51,1.96-2.58,2.58-.94.54-2.01.87-3.15.93h0c-.11,0-.23,0-.35,0h-.35s0,0,0,0h-1.53c-.54,0-1.09,0-1.63,0,0,0,0,0,0,0-.89,0-1.78,0-2.67,0h-.84c-.28,0-.55,0-.83,0-.89,0-1.78,0-2.67,0h0c-.54,0-1.09,0-1.63,0h-1.87s-.33,0-.33,0c0,0,0,0,0,0h-3.17v-3.51h3.3c.07,0,.14,0,.2,0,0,0,0,0,0,0h0c.07,0,.15,0,.22,0h13.59c.07,0,.14,0,.21,0h0c.07,0,.15,0,.22,0,1.83-.11,3.28-1.63,3.28-3.49v-.02h0c0-1.92-1.57-3.48-3.5-3.48h0v-.03h-.44c-1.02,0-2.04,0-3.07,0v-3.51h3.5v.03h0c1.27,0,2.47.34,3.5.93,1.06.61,1.94,1.49,2.56,2.55.6,1.03.95,2.23.95,3.51Z"/>
    <path class="cls-2" d="M43.3,24c0,1.21-.15,2.39-.44,3.51-.32,1.25-.81,2.42-1.44,3.51-.47.81-1.02,1.57-1.63,2.27-.39.44-.8.86-1.24,1.24-.7.62-1.46,1.16-2.27,1.63-1.09.63-2.26,1.12-3.51,1.44-1.1.28-2.26.44-3.45.44h-3.56v-.44s0,0,0,0v.44h-7.01v-.44h0v.44h-7.01v-3.51h17.55c1.23,0,2.41-.21,3.5-.6,1.31-.46,2.5-1.18,3.51-2.08.29-.26.57-.54.83-.83.91-1.01,1.62-2.2,2.08-3.51.39-1.1.6-2.28.6-3.51s-.21-2.41-.6-3.51c-.46-1.31-1.18-2.5-2.08-3.51-.26-.29-.54-.57-.83-.83-1.01-.91-2.2-1.62-3.51-2.08-1.1-.39-2.27-.6-3.5-.6h-3.51v-3.51h3.38s.02,0,.02,0c0,0,0,0,0,0h.1s.04,0,.06,0c0,0,.02,0,.02,0,1.18,0,2.33.16,3.42.44,1.24.32,2.42.81,3.51,1.44.81.47,1.57,1.02,2.27,1.63.44.39.86.8,1.24,1.24.62.7,1.16,1.46,1.63,2.27.63,1.09,1.12,2.26,1.44,3.51.29,1.12.44,2.3.44,3.51Z"/>
    <path class="cls-2" d="M22.24,9.96v14.04h-3.5v-10.53h0c-1.23,0-2.41.21-3.5.6-1.31.46-2.5,1.18-3.51,2.08-.29.26-.57.54-.83.83-.91,1.01-1.62,2.2-2.08,3.51-.39,1.1-.6,2.28-.6,3.51v14.04h-3.51c0-1.17,0-2.34,0-3.51,0-1.17,0-2.34,0-3.51,0-1.17,0-2.34,0-3.51,0-1.1,0-2.2,0-3.3,0-.07,0-.14,0-.21v-.21c.02-1.14.17-2.24.44-3.3.32-1.24.81-2.42,1.44-3.51.47-.81,1.02-1.57,1.63-2.27.39-.44.8-.86,1.24-1.24.7-.62,1.46-1.16,2.27-1.63,1.09-.63,2.26-1.12,3.51-1.44,1.09-.28,2.24-.43,3.42-.44h.08s3.51,0,3.51,0Z"/>
  </g>
</svg>